#!OML:ASF H:\Not Pregnant\Project 1\Capture day 1\Session 1\non-pregnant.ASF
:FULLY-SPECIFIED
:DEGREES
1557
root 0.0772735 8.90128 25.4051 28.923 -63.2236 -14.3277
lowerback 40.0305 -2.84216 11.8564
upperback 2.17997 1.87796 3.23429
thorax -16.8539 -0.124626 -3.37679
lowerneck 3.97857 -11.2595 -22.6497
upperneck -41.2414 -11.1935 48.1011
head -6.96282 -9.63781 30.0568
rclavicle 5.80451e-014 3.49861e-014
rhumerus 6.22483 -9.22671 -65.7603
rradius 20.1875
rwrist 63.1895
rhand 12.7597 12.4612
rfingers 7.12502
rthumb 37.7389 -13.4086
lclavicle 5.80451e-014 3.49861e-014
lhumerus 5.60715 -12.3396 60.927
lradius 35.6331
lwrist 25.1414
lhand -10.8319 -16.0659
lfingers 7.12502
lthumb 15.1825 13.3571
rfemur -105.262 12.5211 29.937
rtibia 118.683
rfoot -22.4958 14.0849
rtoes 0.331311
lfemur -447.843 35.2959 -385.233
ltibia 137.541
lfoot -39.7194 -13.4122
ltoes -41.3849
1558
root 0.0788607 9.02179 25.4274 30.2272 -63.2309 -15.2304
lowerback 39.5787 -2.73676 11.82
upperback 1.94365 1.97068 3.23587
thorax -16.9746 -0.0893054 -3.41023
lowerneck 4.05269 -11.3211 -22.7322
upperneck -41.2129 -11.34 48.2642
head -6.84821 -9.73729 30.1407
rclavicle -9.54166e-015 -2.70347e-014
rhumerus 7.08472 -9.84242 -66.7749
rradius 20.1517
rwrist 60.8023
rhand 13.3237 11.0833
rfingers 7.12502
rthumb 38.2715 -14.6415
lclavicle -9.54166e-015 -2.70347e-014
lhumerus 5.03977 -11.2046 62.2598
lradius 33.7689
lwrist 24.9058
lhand -12.7801 -16.8533
lfingers 7.12502
lthumb 13.3052 12.7019
rfemur -104.712 12.5341 30.1867
rtibia 117.525
rfoot -22.2447 14.4459
rtoes 0.61581
lfemur -447.366 33.4589 -384.847
ltibia 136.516
lfoot -39.2982 -11.8594
ltoes -41.7835
1559
root 0.0802168 9.14136 25.4492 31.5063 -63.2362 -16.1012
lowerback 39.1393 -2.57227 11.7335
upperback 1.68481 2.12673 3.26527
thorax -17.1223 -0.0253643 -3.41659
lowerneck 4.16093 -11.4021 -22.7699
upperneck -41.228 -11.5002 48.4021
head -6.75842 -9.84711 30.1918
rclavicle -2.66371e-014 2.62396e-014
rhumerus 7.75299 -10.0489 -67.6283
rradius 20.3327
rwrist 58.2749
rhand 13.4534 9.48739
rfingers 7.12502
rthumb 38.3939 -16.2036
lclavicle -2.66371e-014 2.62396e-014
lhumerus 4.40577 -10.0406 63.6174
lradius 32.239
lwrist 24.669
lhand -14.3486 -17.1374
lfingers 7.12502
lthumb 11.793 12.5106
rfemur -104.181 12.5523 30.4248
rtibia 116.37
rfoot -21.9765 14.8044
rtoes 0.920423
lfemur -446.881 31.6906 -384.401
ltibia 135.458
lfoot -38.9768 -10.3766
ltoes -42.3265
1560
root 0.0812269 9.2605 25.4704 32.767 -63.2311 -16.9568
lowerback 38.704 -2.39602 11.6042
upperback 1.42211 2.28728 3.33038
thorax -17.2783 0.0442552 -3.36215
lowerneck 4.26603 -11.4731 -22.8428
upperneck -41.2474 -11.6552 48.5372
head -6.66938 -9.94798 30.2626
rclavicle 2.46493e-014 -8.74653e-015
rhumerus 8.33735 -9.88591 -68.3756
rradius 20.6774
rwrist 55.8491
rhand 13.1543 7.91189
rfingers 7.12502
rthumb 38.1115 -17.8569
lclavicle 2.46493e-014 -8.74653e-015
lhumerus 3.65886 -8.75454 64.9644
lradius 31.0358
lwrist 24.3591
lhand -15.5996 -16.9821
lfingers 7.12502
lthumb 10.5864 12.7313
rfemur -103.652 12.5721 30.665
rtibia 115.212
rfoot -21.7001 15.1552
rtoes 1.24534
lfemur -446.399 30.1019 -383.906
ltibia 134.367
lfoot -38.7636 -9.10984
ltoes -42.8956
1561
root 0.0816425 9.37818 25.4911 33.97 -63.2217 -17.7534
lowerback 38.273 -2.203 11.4066
upperback 1.15755 2.44801 3.42991
thorax -17.4432 0.120237 -3.2333
lowerneck 4.36375 -11.5326 -22.9261
upperneck -41.2733 -11.7954 48.6534
head -6.59172 -10.0355 30.3325
rclavicle -1.98785e-014 3.18055e-015
rhumerus 8.83717 -9.42612 -69.0155
rradius 21.1209
rwrist 53.8596
rhand 12.1244 6.47859
rfingers 7.12502
rthumb 37.1384 -19.55
lclavicle -1.98785e-014 3.18055e-015
lhumerus 2.8081 -7.40639 66.2781
lradius 30.1487
lwrist 23.9774
lhand -16.5259 -16.4475
lfingers 7.12502
lthumb 9.69282 13.3095
rfemur -103.14 12.5892 30.8834
rtibia 114.065
rfoot -21.4128 15.5126
rtoes 1.61569
lfemur -445.959 28.8183 -383.431
ltibia 133.253
lfoot -38.6679 -8.19704
ltoes -43.3926
1562
root 0.0818447 9.49552 25.5115 35.1019 -63.206 -18.478
lowerback 37.8365 -2.0198 11.1817
upperback 0.898759 2.58488 3.52962
thorax -17.6024 0.189923 -3.07791
lowerneck 4.45395 -11.5783 -23.0041
upperneck -41.3037 -11.9175 48.7658
head -6.52696 -10.1125 30.4181
rclavicle -5.28767e-014 4.8901e-014
rhumerus 9.27262 -8.80743 -69.6081
rradius 21.5804
rwrist 52.5733
rhand 10.1581 5.50163
rfingers 7.12502
rthumb 35.2762 -20.9895
lclavicle -5.28767e-014 4.8901e-014
lhumerus 1.8698 -6.11414 67.4879
lradius 29.5639
lwrist 23.5436
lhand -17.1599 -15.594
lfingers 7.12502
lthumb 9.08109 14.1905
rfemur -102.633 12.5873 31.0843
rtibia 112.921
rfoot -21.1225 15.8619
rtoes 1.98547
lfemur -445.498 27.5488 -382.912
ltibia 132.106
lfoot -38.6135 -7.43748
ltoes -43.8977
1563
root 0.0817695 9.61294 25.5319 36.135 -63.1915 -19.1122
lowerback 37.3885 -1.86371 10.9544
upperback 0.656812 2.67872 3.59838
thorax -17.7378 0.243614 -2.93482
lowerneck 4.53437 -11.6084 -23.0437
upperneck -41.3355 -12.0133 48.8771
head -6.48242 -10.1797 30.5173
rclavicle -8.34896e-014 -3.18055e-014
rhumerus 9.66199 -8.03396 -70.1849
rradius 22.0546
rwrist 51.8076
rhand 7.4687 4.91327
rfingers 7.12502
rthumb 32.7217 -22.1452
lclavicle -8.34896e-014 -3.18055e-014
lhumerus 0.862864 -4.9785 68.5437
lradius 29.2605
lwrist 23.116
lhand -17.5388 -14.5026
lfingers 7.12502
lthumb 8.71546 15.2974
rfemur -102.118 12.5633 31.2567
rtibia 111.78
rfoot -20.8408 16.1947
rtoes 2.30852
lfemur -444.992 26.2552 -382.361
ltibia 130.923
lfoot -38.5853 -6.78373
ltoes -44.3953
1564
root 0.0817207 9.73102 25.5527 37.0756 -63.1743 -19.6701
lowerback 36.9312 -1.74728 10.7718
upperback 0.432187 2.7291 3.61304
thorax -17.844 0.276399 -2.85411
lowerneck 4.61925 -11.6271 -23.0281
upperneck -41.3754 -12.0877 48.9932
head -6.46311 -10.2433 30.6351
rclavicle -5.96354e-015 3.97569e-014
rhumerus 10.0256 -7.19687 -70.7954
rradius 22.5588
rwrist 51.3108
rhand 4.4421 4.62275
rfingers 7.12502
rthumb 29.8377 -22.9938
lclavicle -5.96354e-015 3.97569e-014
lhumerus -0.199929 -4.13875 69.426
lradius 29.2274
lwrist 22.8125
lhand -17.7369 -13.232
lfingers 7.12502
lthumb 8.52427 16.576
rfemur -101.579 12.512 31.4132
rtibia 110.637
rfoot -20.5713 16.508
rtoes 2.56587
lfemur -444.442 24.9517 -381.791
ltibia 129.706
lfoot -38.5738 -6.20078
ltoes -44.8938
1565
root 0.0819231 9.85041 25.5739 37.8809 -63.1735 -20.1117
lowerback 36.4038 -1.64795 10.5721
upperback 0.298238 2.7317 3.61239
thorax -17.9198 0.289548 -2.80876
lowerneck 4.69551 -11.6339 -22.9691
upperneck -41.4171 -12.1394 49.1092
head -6.46303 -10.2998 30.7631
rclavicle -3.06128e-014 -8.34896e-015
rhumerus 10.3556 -6.15782 -71.3806
rradius 23.1027
rwrist 50.9241
rhand 1.00121 4.51912
rfingers 7.12502
rthumb 26.549 -23.6403
lclavicle -3.06128e-014 -8.34896e-015
lhumerus -1.30811 -3.54522 70.1683
lradius 29.4186
lwrist 22.642
lhand -17.6703 -11.8862
lfingers 7.12502
lthumb 8.58854 17.9192
rfemur -101.012 12.4319 31.5257
rtibia 109.491
rfoot -20.3109 16.8054
rtoes 2.75538
lfemur -443.828 23.5601 -381.223
ltibia 128.448
lfoot -38.536 -5.64572
ltoes -45.3488
1566
root 0.0822057 9.97017 25.5955 38.5756 -63.186 -20.4685
lowerback 35.9364 -1.59893 10.4445
upperback 0.121905 2.69456 3.52321
thorax -17.9561 0.282443 -2.83155
lowerneck 4.77643 -11.6343 -22.8727
upperneck -41.4388 -12.2207 49.1732
head -6.50119 -10.3523 30.9843
rclavicle 2.34566e-014 4.92986e-014
rhumerus 10.6947 -4.86716 -71.9423
rradius 23.8586
rwrist 49.6724
rhand -1.62072 4.35298
rfingers 7.12502
rthumb 24.0371 -24.1618
lclavicle 2.34566e-014 4.92986e-014
lhumerus -2.44667 -3.25902 70.7834
lradius 29.819
lwrist 22.7627
lhand -17.4147 -10.5579
lfingers 7.12502
lthumb 8.83517 19.2371
rfemur -100.416 12.3375 31.6014
rtibia 108.35
rfoot -20.0558 17.0806
rtoes 2.91407
lfemur -443.168 22.2093 -380.694
ltibia 127.162
lfoot -38.5093 -5.09727
ltoes -45.7976
1567
root 0.0827999 10.0904 25.6174 39.168 -63.206 -20.7528
lowerback 35.49 -1.54559 10.2878
upperback -0.0425867 2.65707 3.45947
thorax -17.9871 0.278768 -2.80975
lowerneck 4.86592 -11.6346 -22.8184
upperneck -41.5121 -12.2608 49.2886
head -6.51692 -10.4048 31.1199
rclavicle 2.42517e-014 1.63003e-014
rhumerus 10.9925 -3.26476 -72.3437
rradius 24.7484
rwrist 48.0039
rhand -4.21375 4.172
rfingers 7.12502
rthumb 21.5487 -24.6492
lclavicle 2.42517e-014 1.63003e-014
lhumerus -3.62117 -3.04089 71.4059
lradius 30.3341
lwrist 23.0628
lhand -16.705 -9.44074
lfingers 7.12502
lthumb 9.51996 20.3242
rfemur -99.7884 12.2224 31.6502
rtibia 107.21
rfoot -19.8003 17.3498
rtoes 3.07099
lfemur -442.471 20.9098 -380.209
ltibia 125.853
lfoot -38.4833 -4.52094
ltoes -46.2629
